<mxfile host="app.diagrams.net" agent="Mozilla/5.0 (Windows NT 10.0; Win64; x64) AppleWebKit/537.36 (KHTML, like Gecko) Chrome/126.0.0.0 Safari/537.36" version="24.7.6">
  <diagram name="第 1 页" id="CMcUgNSJt625-ANRfRUt">
    <mxGraphModel dx="1147" dy="737" grid="1" gridSize="10" guides="1" tooltips="1" connect="1" arrows="1" fold="1" page="1" pageScale="1" pageWidth="827" pageHeight="1169" math="0" shadow="0">
      <root>
        <mxCell id="0" />
        <mxCell id="1" parent="0" />
        <mxCell id="2VXlJBjByZIwGx6ayslx-62" style="edgeStyle=orthogonalEdgeStyle;rounded=0;orthogonalLoop=1;jettySize=auto;html=1;exitX=0.5;exitY=1;exitDx=0;exitDy=0;" edge="1" parent="1" source="2VXlJBjByZIwGx6ayslx-58" target="2VXlJBjByZIwGx6ayslx-59">
          <mxGeometry relative="1" as="geometry" />
        </mxCell>
        <mxCell id="2VXlJBjByZIwGx6ayslx-58" value="" style="rounded=0;whiteSpace=wrap;html=1;dashed=1;fillColor=none;" vertex="1" parent="1">
          <mxGeometry x="250" y="1020" width="340" height="450" as="geometry" />
        </mxCell>
        <mxCell id="2VXlJBjByZIwGx6ayslx-3" style="edgeStyle=orthogonalEdgeStyle;rounded=0;orthogonalLoop=1;jettySize=auto;html=1;exitX=0.5;exitY=1;exitDx=0;exitDy=0;exitPerimeter=0;entryX=0.5;entryY=0;entryDx=0;entryDy=0;" edge="1" parent="1" source="2VXlJBjByZIwGx6ayslx-1" target="2VXlJBjByZIwGx6ayslx-2">
          <mxGeometry relative="1" as="geometry" />
        </mxCell>
        <mxCell id="2VXlJBjByZIwGx6ayslx-1" value="Sass下发创建录像分析任务" style="strokeWidth=2;html=1;shape=mxgraph.flowchart.terminator;whiteSpace=wrap;fillColor=#d5e8d4;strokeColor=#82b366;" vertex="1" parent="1">
          <mxGeometry x="320" y="50" width="100" height="50" as="geometry" />
        </mxCell>
        <mxCell id="2VXlJBjByZIwGx6ayslx-13" style="edgeStyle=orthogonalEdgeStyle;rounded=0;orthogonalLoop=1;jettySize=auto;html=1;exitX=0.5;exitY=1;exitDx=0;exitDy=0;entryX=0.5;entryY=0;entryDx=0;entryDy=0;" edge="1" parent="1" source="2VXlJBjByZIwGx6ayslx-2" target="2VXlJBjByZIwGx6ayslx-12">
          <mxGeometry relative="1" as="geometry" />
        </mxCell>
        <mxCell id="2VXlJBjByZIwGx6ayslx-14" value="Yes" style="edgeLabel;html=1;align=center;verticalAlign=middle;resizable=0;points=[];" vertex="1" connectable="0" parent="2VXlJBjByZIwGx6ayslx-13">
          <mxGeometry x="-0.2683" y="2" relative="1" as="geometry">
            <mxPoint as="offset" />
          </mxGeometry>
        </mxCell>
        <mxCell id="2VXlJBjByZIwGx6ayslx-2" value="参数校验" style="rhombus;whiteSpace=wrap;html=1;fillColor=#fff2cc;strokeColor=#d6b656;" vertex="1" parent="1">
          <mxGeometry x="330" y="138" width="80" height="80" as="geometry" />
        </mxCell>
        <mxCell id="2VXlJBjByZIwGx6ayslx-4" value="抛出异常" style="strokeWidth=2;html=1;shape=mxgraph.flowchart.terminator;whiteSpace=wrap;fillColor=#f8cecc;strokeColor=#b85450;" vertex="1" parent="1">
          <mxGeometry x="468" y="158" width="80" height="40" as="geometry" />
        </mxCell>
        <mxCell id="2VXlJBjByZIwGx6ayslx-5" style="edgeStyle=orthogonalEdgeStyle;rounded=0;orthogonalLoop=1;jettySize=auto;html=1;exitX=1;exitY=0.5;exitDx=0;exitDy=0;entryX=0;entryY=0.5;entryDx=0;entryDy=0;entryPerimeter=0;" edge="1" parent="1" source="2VXlJBjByZIwGx6ayslx-2" target="2VXlJBjByZIwGx6ayslx-4">
          <mxGeometry relative="1" as="geometry" />
        </mxCell>
        <mxCell id="2VXlJBjByZIwGx6ayslx-6" value="No" style="edgeLabel;html=1;align=center;verticalAlign=middle;resizable=0;points=[];" vertex="1" connectable="0" parent="2VXlJBjByZIwGx6ayslx-5">
          <mxGeometry x="-0.1034" y="3" relative="1" as="geometry">
            <mxPoint as="offset" />
          </mxGeometry>
        </mxCell>
        <mxCell id="2VXlJBjByZIwGx6ayslx-7" value="流控" style="rounded=0;whiteSpace=wrap;html=1;" vertex="1" parent="1">
          <mxGeometry x="110" y="240" width="120" height="60" as="geometry" />
        </mxCell>
        <mxCell id="2VXlJBjByZIwGx6ayslx-22" style="edgeStyle=orthogonalEdgeStyle;rounded=0;orthogonalLoop=1;jettySize=auto;html=1;exitX=0.5;exitY=1;exitDx=0;exitDy=0;entryX=0.5;entryY=0;entryDx=0;entryDy=0;" edge="1" parent="1" source="2VXlJBjByZIwGx6ayslx-8" target="2VXlJBjByZIwGx6ayslx-21">
          <mxGeometry relative="1" as="geometry" />
        </mxCell>
        <mxCell id="2VXlJBjByZIwGx6ayslx-8" value="创建抓拍库" style="rounded=0;whiteSpace=wrap;html=1;fillColor=#dae8fc;strokeColor=#6c8ebf;" vertex="1" parent="1">
          <mxGeometry x="292" y="459" width="156" height="40" as="geometry" />
        </mxCell>
        <mxCell id="2VXlJBjByZIwGx6ayslx-28" style="edgeStyle=orthogonalEdgeStyle;rounded=0;orthogonalLoop=1;jettySize=auto;html=1;exitX=0.5;exitY=1;exitDx=0;exitDy=0;entryX=0.5;entryY=0;entryDx=0;entryDy=0;" edge="1" parent="1" source="2VXlJBjByZIwGx6ayslx-9" target="2VXlJBjByZIwGx6ayslx-27">
          <mxGeometry relative="1" as="geometry" />
        </mxCell>
        <mxCell id="2VXlJBjByZIwGx6ayslx-9" value="将该任务插入数据库" style="rounded=0;whiteSpace=wrap;html=1;fillColor=#dae8fc;strokeColor=#6c8ebf;" vertex="1" parent="1">
          <mxGeometry x="310" y="644.5" width="120" height="40" as="geometry" />
        </mxCell>
        <mxCell id="2VXlJBjByZIwGx6ayslx-10" value="添加路由" style="rounded=0;whiteSpace=wrap;html=1;" vertex="1" parent="1">
          <mxGeometry x="110" y="500" width="120" height="60" as="geometry" />
        </mxCell>
        <mxCell id="2VXlJBjByZIwGx6ayslx-11" value="存入内存Cache" style="rounded=0;whiteSpace=wrap;html=1;" vertex="1" parent="1">
          <mxGeometry x="110" y="584.5" width="120" height="60" as="geometry" />
        </mxCell>
        <mxCell id="2VXlJBjByZIwGx6ayslx-17" style="edgeStyle=orthogonalEdgeStyle;rounded=0;orthogonalLoop=1;jettySize=auto;html=1;exitX=0.5;exitY=1;exitDx=0;exitDy=0;entryX=0.5;entryY=0;entryDx=0;entryDy=0;" edge="1" parent="1" source="2VXlJBjByZIwGx6ayslx-12" target="2VXlJBjByZIwGx6ayslx-15">
          <mxGeometry relative="1" as="geometry" />
        </mxCell>
        <mxCell id="2VXlJBjByZIwGx6ayslx-12" value="从MySQL中查询处于RUNNING和WAITING的FACE和STRUCT的任务数量" style="rounded=0;whiteSpace=wrap;html=1;fillColor=#dae8fc;strokeColor=#6c8ebf;" vertex="1" parent="1">
          <mxGeometry x="285" y="259" width="170" height="60" as="geometry" />
        </mxCell>
        <mxCell id="2VXlJBjByZIwGx6ayslx-20" style="edgeStyle=orthogonalEdgeStyle;rounded=0;orthogonalLoop=1;jettySize=auto;html=1;exitX=0.5;exitY=1;exitDx=0;exitDy=0;entryX=0.5;entryY=0;entryDx=0;entryDy=0;" edge="1" parent="1" source="2VXlJBjByZIwGx6ayslx-15" target="2VXlJBjByZIwGx6ayslx-8">
          <mxGeometry relative="1" as="geometry" />
        </mxCell>
        <mxCell id="2VXlJBjByZIwGx6ayslx-15" value="超过最大&lt;div&gt;限制数量&lt;/div&gt;" style="rhombus;whiteSpace=wrap;html=1;fillColor=#fff2cc;strokeColor=#d6b656;" vertex="1" parent="1">
          <mxGeometry x="330" y="350" width="80" height="80" as="geometry" />
        </mxCell>
        <mxCell id="2VXlJBjByZIwGx6ayslx-16" value="抛出异常" style="strokeWidth=2;html=1;shape=mxgraph.flowchart.terminator;whiteSpace=wrap;fillColor=#f8cecc;strokeColor=#b85450;" vertex="1" parent="1">
          <mxGeometry x="468" y="370" width="80" height="40" as="geometry" />
        </mxCell>
        <mxCell id="2VXlJBjByZIwGx6ayslx-18" style="edgeStyle=orthogonalEdgeStyle;rounded=0;orthogonalLoop=1;jettySize=auto;html=1;exitX=1;exitY=0.5;exitDx=0;exitDy=0;entryX=0;entryY=0.5;entryDx=0;entryDy=0;entryPerimeter=0;" edge="1" parent="1" source="2VXlJBjByZIwGx6ayslx-15" target="2VXlJBjByZIwGx6ayslx-16">
          <mxGeometry relative="1" as="geometry" />
        </mxCell>
        <mxCell id="2VXlJBjByZIwGx6ayslx-19" value="Yes" style="edgeLabel;html=1;align=center;verticalAlign=middle;resizable=0;points=[];" vertex="1" connectable="0" parent="2VXlJBjByZIwGx6ayslx-18">
          <mxGeometry x="-0.2414" y="1" relative="1" as="geometry">
            <mxPoint as="offset" />
          </mxGeometry>
        </mxCell>
        <mxCell id="2VXlJBjByZIwGx6ayslx-24" style="edgeStyle=orthogonalEdgeStyle;rounded=0;orthogonalLoop=1;jettySize=auto;html=1;exitX=1;exitY=0.5;exitDx=0;exitDy=0;" edge="1" parent="1" source="2VXlJBjByZIwGx6ayslx-21" target="2VXlJBjByZIwGx6ayslx-23">
          <mxGeometry relative="1" as="geometry" />
        </mxCell>
        <mxCell id="2VXlJBjByZIwGx6ayslx-25" value="No" style="edgeLabel;html=1;align=center;verticalAlign=middle;resizable=0;points=[];" vertex="1" connectable="0" parent="2VXlJBjByZIwGx6ayslx-24">
          <mxGeometry x="-0.069" relative="1" as="geometry">
            <mxPoint as="offset" />
          </mxGeometry>
        </mxCell>
        <mxCell id="2VXlJBjByZIwGx6ayslx-26" style="edgeStyle=orthogonalEdgeStyle;rounded=0;orthogonalLoop=1;jettySize=auto;html=1;exitX=0.5;exitY=1;exitDx=0;exitDy=0;entryX=0.5;entryY=0;entryDx=0;entryDy=0;" edge="1" parent="1" source="2VXlJBjByZIwGx6ayslx-21" target="2VXlJBjByZIwGx6ayslx-9">
          <mxGeometry relative="1" as="geometry">
            <mxPoint x="370" y="640" as="targetPoint" />
          </mxGeometry>
        </mxCell>
        <mxCell id="2VXlJBjByZIwGx6ayslx-21" value="创建成功" style="rhombus;whiteSpace=wrap;html=1;fillColor=#fff2cc;strokeColor=#d6b656;" vertex="1" parent="1">
          <mxGeometry x="330" y="530" width="80" height="80" as="geometry" />
        </mxCell>
        <mxCell id="2VXlJBjByZIwGx6ayslx-23" value="抛出异常" style="strokeWidth=2;html=1;shape=mxgraph.flowchart.terminator;whiteSpace=wrap;fillColor=#f8cecc;strokeColor=#b85450;" vertex="1" parent="1">
          <mxGeometry x="468" y="550" width="80" height="40" as="geometry" />
        </mxCell>
        <mxCell id="2VXlJBjByZIwGx6ayslx-34" style="edgeStyle=orthogonalEdgeStyle;rounded=0;orthogonalLoop=1;jettySize=auto;html=1;exitX=0.5;exitY=1;exitDx=0;exitDy=0;entryX=0.5;entryY=0;entryDx=0;entryDy=0;" edge="1" parent="1" source="2VXlJBjByZIwGx6ayslx-27" target="2VXlJBjByZIwGx6ayslx-33">
          <mxGeometry relative="1" as="geometry" />
        </mxCell>
        <mxCell id="2VXlJBjByZIwGx6ayslx-35" value="Yes" style="edgeLabel;html=1;align=center;verticalAlign=middle;resizable=0;points=[];" vertex="1" connectable="0" parent="2VXlJBjByZIwGx6ayslx-34">
          <mxGeometry x="-0.2308" y="1" relative="1" as="geometry">
            <mxPoint as="offset" />
          </mxGeometry>
        </mxCell>
        <mxCell id="2VXlJBjByZIwGx6ayslx-27" value="插入成功" style="rhombus;whiteSpace=wrap;html=1;fillColor=#fff2cc;strokeColor=#d6b656;" vertex="1" parent="1">
          <mxGeometry x="330" y="718" width="80" height="80" as="geometry" />
        </mxCell>
        <mxCell id="2VXlJBjByZIwGx6ayslx-29" value="抛出异常" style="strokeWidth=2;html=1;shape=mxgraph.flowchart.terminator;whiteSpace=wrap;fillColor=#f8cecc;strokeColor=#b85450;" vertex="1" parent="1">
          <mxGeometry x="468" y="738" width="80" height="40" as="geometry" />
        </mxCell>
        <mxCell id="2VXlJBjByZIwGx6ayslx-30" style="edgeStyle=orthogonalEdgeStyle;rounded=0;orthogonalLoop=1;jettySize=auto;html=1;exitX=1;exitY=0.5;exitDx=0;exitDy=0;entryX=0;entryY=0.5;entryDx=0;entryDy=0;entryPerimeter=0;" edge="1" parent="1" source="2VXlJBjByZIwGx6ayslx-27" target="2VXlJBjByZIwGx6ayslx-29">
          <mxGeometry relative="1" as="geometry" />
        </mxCell>
        <mxCell id="2VXlJBjByZIwGx6ayslx-31" value="No" style="edgeLabel;html=1;align=center;verticalAlign=middle;resizable=0;points=[];" vertex="1" connectable="0" parent="2VXlJBjByZIwGx6ayslx-30">
          <mxGeometry x="-0.069" y="2" relative="1" as="geometry">
            <mxPoint as="offset" />
          </mxGeometry>
        </mxCell>
        <mxCell id="2VXlJBjByZIwGx6ayslx-39" style="edgeStyle=orthogonalEdgeStyle;rounded=0;orthogonalLoop=1;jettySize=auto;html=1;exitX=0.5;exitY=1;exitDx=0;exitDy=0;entryX=0.5;entryY=0;entryDx=0;entryDy=0;" edge="1" parent="1" source="2VXlJBjByZIwGx6ayslx-33" target="2VXlJBjByZIwGx6ayslx-36">
          <mxGeometry relative="1" as="geometry" />
        </mxCell>
        <mxCell id="2VXlJBjByZIwGx6ayslx-33" value="构建分析任务参数，并将文件分析记录插入到数据库（fileAnalysis,task）" style="rounded=0;whiteSpace=wrap;html=1;fillColor=#dae8fc;strokeColor=#6c8ebf;" vertex="1" parent="1">
          <mxGeometry x="305" y="836" width="130" height="60" as="geometry" />
        </mxCell>
        <mxCell id="2VXlJBjByZIwGx6ayslx-42" style="edgeStyle=orthogonalEdgeStyle;rounded=0;orthogonalLoop=1;jettySize=auto;html=1;exitX=0.5;exitY=1;exitDx=0;exitDy=0;entryX=0.5;entryY=0;entryDx=0;entryDy=0;" edge="1" parent="1" source="2VXlJBjByZIwGx6ayslx-36" target="2VXlJBjByZIwGx6ayslx-41">
          <mxGeometry relative="1" as="geometry" />
        </mxCell>
        <mxCell id="2VXlJBjByZIwGx6ayslx-43" value="Yes" style="edgeLabel;html=1;align=center;verticalAlign=middle;resizable=0;points=[];" vertex="1" connectable="0" parent="2VXlJBjByZIwGx6ayslx-42">
          <mxGeometry x="-0.4" y="-1" relative="1" as="geometry">
            <mxPoint as="offset" />
          </mxGeometry>
        </mxCell>
        <mxCell id="2VXlJBjByZIwGx6ayslx-36" value="插入成功" style="rhombus;whiteSpace=wrap;html=1;fillColor=#fff2cc;strokeColor=#d6b656;" vertex="1" parent="1">
          <mxGeometry x="330" y="920" width="80" height="80" as="geometry" />
        </mxCell>
        <mxCell id="2VXlJBjByZIwGx6ayslx-37" value="抛出异常" style="strokeWidth=2;html=1;shape=mxgraph.flowchart.terminator;whiteSpace=wrap;fillColor=#f8cecc;strokeColor=#b85450;" vertex="1" parent="1">
          <mxGeometry x="468" y="940" width="80" height="40" as="geometry" />
        </mxCell>
        <mxCell id="2VXlJBjByZIwGx6ayslx-38" style="edgeStyle=orthogonalEdgeStyle;rounded=0;orthogonalLoop=1;jettySize=auto;html=1;exitX=1;exitY=0.5;exitDx=0;exitDy=0;entryX=0;entryY=0.5;entryDx=0;entryDy=0;entryPerimeter=0;" edge="1" parent="1" source="2VXlJBjByZIwGx6ayslx-36" target="2VXlJBjByZIwGx6ayslx-37">
          <mxGeometry relative="1" as="geometry" />
        </mxCell>
        <mxCell id="2VXlJBjByZIwGx6ayslx-40" value="No" style="edgeLabel;html=1;align=center;verticalAlign=middle;resizable=0;points=[];" vertex="1" connectable="0" parent="2VXlJBjByZIwGx6ayslx-38">
          <mxGeometry x="-0.2414" y="-2" relative="1" as="geometry">
            <mxPoint as="offset" />
          </mxGeometry>
        </mxCell>
        <mxCell id="2VXlJBjByZIwGx6ayslx-46" style="edgeStyle=orthogonalEdgeStyle;rounded=0;orthogonalLoop=1;jettySize=auto;html=1;exitX=0.5;exitY=1;exitDx=0;exitDy=0;entryX=0.5;entryY=0;entryDx=0;entryDy=0;" edge="1" parent="1" source="2VXlJBjByZIwGx6ayslx-41" target="2VXlJBjByZIwGx6ayslx-44">
          <mxGeometry relative="1" as="geometry" />
        </mxCell>
        <mxCell id="2VXlJBjByZIwGx6ayslx-41" value="构建路由信息并添加路由到EX（rpc）" style="rounded=0;whiteSpace=wrap;html=1;fillColor=#dae8fc;strokeColor=#6c8ebf;" vertex="1" parent="1">
          <mxGeometry x="310" y="1030" width="120" height="40" as="geometry" />
        </mxCell>
        <mxCell id="2VXlJBjByZIwGx6ayslx-47" style="edgeStyle=orthogonalEdgeStyle;rounded=0;orthogonalLoop=1;jettySize=auto;html=1;exitX=1;exitY=0.5;exitDx=0;exitDy=0;entryX=0;entryY=0.5;entryDx=0;entryDy=0;" edge="1" parent="1" source="2VXlJBjByZIwGx6ayslx-44" target="2VXlJBjByZIwGx6ayslx-45">
          <mxGeometry relative="1" as="geometry" />
        </mxCell>
        <mxCell id="2VXlJBjByZIwGx6ayslx-48" value="Yes" style="edgeLabel;html=1;align=center;verticalAlign=middle;resizable=0;points=[];" vertex="1" connectable="0" parent="2VXlJBjByZIwGx6ayslx-47">
          <mxGeometry x="-0.32" y="2" relative="1" as="geometry">
            <mxPoint as="offset" />
          </mxGeometry>
        </mxCell>
        <mxCell id="2VXlJBjByZIwGx6ayslx-51" style="edgeStyle=orthogonalEdgeStyle;rounded=0;orthogonalLoop=1;jettySize=auto;html=1;exitX=0.5;exitY=1;exitDx=0;exitDy=0;entryX=0.5;entryY=0;entryDx=0;entryDy=0;" edge="1" parent="1" source="2VXlJBjByZIwGx6ayslx-44" target="2VXlJBjByZIwGx6ayslx-50">
          <mxGeometry relative="1" as="geometry" />
        </mxCell>
        <mxCell id="2VXlJBjByZIwGx6ayslx-44" value="任务是视&lt;div&gt;频图片流&lt;/div&gt;" style="rhombus;whiteSpace=wrap;html=1;fillColor=#fff2cc;strokeColor=#d6b656;" vertex="1" parent="1">
          <mxGeometry x="330" y="1100" width="80" height="80" as="geometry" />
        </mxCell>
        <mxCell id="2VXlJBjByZIwGx6ayslx-45" value="只添加到路由，不做其他操作" style="rounded=0;whiteSpace=wrap;html=1;fillColor=#dae8fc;strokeColor=#6c8ebf;" vertex="1" parent="1">
          <mxGeometry x="460" y="1120" width="120" height="40" as="geometry" />
        </mxCell>
        <mxCell id="2VXlJBjByZIwGx6ayslx-54" style="edgeStyle=orthogonalEdgeStyle;rounded=0;orthogonalLoop=1;jettySize=auto;html=1;exitX=0.5;exitY=1;exitDx=0;exitDy=0;entryX=0.5;entryY=0;entryDx=0;entryDy=0;" edge="1" parent="1" source="2VXlJBjByZIwGx6ayslx-50" target="2VXlJBjByZIwGx6ayslx-52">
          <mxGeometry relative="1" as="geometry" />
        </mxCell>
        <mxCell id="2VXlJBjByZIwGx6ayslx-50" value="构建task参数，将任务插入到数据库task表中" style="rounded=0;whiteSpace=wrap;html=1;fillColor=#dae8fc;strokeColor=#6c8ebf;" vertex="1" parent="1">
          <mxGeometry x="310" y="1209" width="120" height="40" as="geometry" />
        </mxCell>
        <mxCell id="2VXlJBjByZIwGx6ayslx-52" value="插入成功" style="rhombus;whiteSpace=wrap;html=1;fillColor=#fff2cc;strokeColor=#d6b656;" vertex="1" parent="1">
          <mxGeometry x="330" y="1280" width="80" height="80" as="geometry" />
        </mxCell>
        <mxCell id="2VXlJBjByZIwGx6ayslx-53" value="抛出异常" style="strokeWidth=2;html=1;shape=mxgraph.flowchart.terminator;whiteSpace=wrap;fillColor=#f8cecc;strokeColor=#b85450;" vertex="1" parent="1">
          <mxGeometry x="460" y="1300" width="80" height="40" as="geometry" />
        </mxCell>
        <mxCell id="2VXlJBjByZIwGx6ayslx-55" style="edgeStyle=orthogonalEdgeStyle;rounded=0;orthogonalLoop=1;jettySize=auto;html=1;exitX=1;exitY=0.5;exitDx=0;exitDy=0;entryX=0;entryY=0.5;entryDx=0;entryDy=0;entryPerimeter=0;" edge="1" parent="1" source="2VXlJBjByZIwGx6ayslx-52" target="2VXlJBjByZIwGx6ayslx-53">
          <mxGeometry relative="1" as="geometry" />
        </mxCell>
        <mxCell id="2VXlJBjByZIwGx6ayslx-56" value="No" style="edgeLabel;html=1;align=center;verticalAlign=middle;resizable=0;points=[];" vertex="1" connectable="0" parent="2VXlJBjByZIwGx6ayslx-55">
          <mxGeometry x="-0.24" y="-1" relative="1" as="geometry">
            <mxPoint y="-3" as="offset" />
          </mxGeometry>
        </mxCell>
        <mxCell id="2VXlJBjByZIwGx6ayslx-57" value="将任务放入排队队列中，异步处理" style="rounded=0;whiteSpace=wrap;html=1;" vertex="1" parent="1">
          <mxGeometry x="130" y="1380" width="120" height="60" as="geometry" />
        </mxCell>
        <mxCell id="2VXlJBjByZIwGx6ayslx-61" style="edgeStyle=orthogonalEdgeStyle;rounded=0;orthogonalLoop=1;jettySize=auto;html=1;exitX=1;exitY=0.5;exitDx=0;exitDy=0;entryX=0;entryY=0.5;entryDx=0;entryDy=0;" edge="1" parent="1" source="2VXlJBjByZIwGx6ayslx-59" target="2VXlJBjByZIwGx6ayslx-60">
          <mxGeometry relative="1" as="geometry" />
        </mxCell>
        <mxCell id="2VXlJBjByZIwGx6ayslx-67" value="Yes" style="edgeLabel;html=1;align=center;verticalAlign=middle;resizable=0;points=[];" vertex="1" connectable="0" parent="2VXlJBjByZIwGx6ayslx-61">
          <mxGeometry x="-0.2" y="1" relative="1" as="geometry">
            <mxPoint as="offset" />
          </mxGeometry>
        </mxCell>
        <mxCell id="2VXlJBjByZIwGx6ayslx-66" style="edgeStyle=orthogonalEdgeStyle;rounded=0;orthogonalLoop=1;jettySize=auto;html=1;exitX=0.5;exitY=1;exitDx=0;exitDy=0;entryX=0.5;entryY=0;entryDx=0;entryDy=0;" edge="1" parent="1" source="2VXlJBjByZIwGx6ayslx-59" target="2VXlJBjByZIwGx6ayslx-65">
          <mxGeometry relative="1" as="geometry" />
        </mxCell>
        <mxCell id="2VXlJBjByZIwGx6ayslx-68" value="No" style="edgeLabel;html=1;align=center;verticalAlign=middle;resizable=0;points=[];" vertex="1" connectable="0" parent="2VXlJBjByZIwGx6ayslx-66">
          <mxGeometry x="-0.5" relative="1" as="geometry">
            <mxPoint as="offset" />
          </mxGeometry>
        </mxCell>
        <mxCell id="2VXlJBjByZIwGx6ayslx-59" value="出现异常" style="rhombus;whiteSpace=wrap;html=1;fillColor=#fff2cc;strokeColor=#d6b656;" vertex="1" parent="1">
          <mxGeometry x="380" y="1500" width="80" height="80" as="geometry" />
        </mxCell>
        <mxCell id="2VXlJBjByZIwGx6ayslx-60" value="回滚数据库操作，路由操作不回滚" style="rounded=0;whiteSpace=wrap;html=1;fillColor=#dae8fc;strokeColor=#6c8ebf;" vertex="1" parent="1">
          <mxGeometry x="500" y="1520" width="120" height="40" as="geometry" />
        </mxCell>
        <mxCell id="2VXlJBjByZIwGx6ayslx-63" value="抛出异常" style="strokeWidth=2;html=1;shape=mxgraph.flowchart.terminator;whiteSpace=wrap;fillColor=#f8cecc;strokeColor=#b85450;" vertex="1" parent="1">
          <mxGeometry x="520" y="1590" width="80" height="40" as="geometry" />
        </mxCell>
        <mxCell id="2VXlJBjByZIwGx6ayslx-64" style="edgeStyle=orthogonalEdgeStyle;rounded=0;orthogonalLoop=1;jettySize=auto;html=1;exitX=0.5;exitY=1;exitDx=0;exitDy=0;entryX=0.5;entryY=0;entryDx=0;entryDy=0;entryPerimeter=0;" edge="1" parent="1" source="2VXlJBjByZIwGx6ayslx-60" target="2VXlJBjByZIwGx6ayslx-63">
          <mxGeometry relative="1" as="geometry" />
        </mxCell>
        <mxCell id="2VXlJBjByZIwGx6ayslx-65" value="将对应关系&amp;lt;uid,库id&amp;gt;&lt;div&gt;&amp;lt;channelId,库id&amp;gt;保存到内存Cache中&lt;/div&gt;" style="rounded=0;whiteSpace=wrap;html=1;fillColor=#dae8fc;strokeColor=#6c8ebf;" vertex="1" parent="1">
          <mxGeometry x="360" y="1620" width="120" height="50" as="geometry" />
        </mxCell>
        <mxCell id="2VXlJBjByZIwGx6ayslx-69" value="返回成功" style="strokeWidth=2;html=1;shape=mxgraph.flowchart.terminator;whiteSpace=wrap;fillColor=#d5e8d4;strokeColor=#82b366;" vertex="1" parent="1">
          <mxGeometry x="380" y="1700" width="80" height="40" as="geometry" />
        </mxCell>
        <mxCell id="2VXlJBjByZIwGx6ayslx-70" style="edgeStyle=orthogonalEdgeStyle;rounded=0;orthogonalLoop=1;jettySize=auto;html=1;exitX=0.5;exitY=1;exitDx=0;exitDy=0;entryX=0.5;entryY=0;entryDx=0;entryDy=0;entryPerimeter=0;" edge="1" parent="1" source="2VXlJBjByZIwGx6ayslx-65" target="2VXlJBjByZIwGx6ayslx-69">
          <mxGeometry relative="1" as="geometry" />
        </mxCell>
      </root>
    </mxGraphModel>
  </diagram>
</mxfile>
